M48
; DRILL file {KiCad (5.1.6)-1} date 03/29/22 00:19:59
; FORMAT={-:-/ absolute / metric / decimal}
; #@! TF.CreationDate,2022-03-29T00:19:59+01:00
; #@! TF.GenerationSoftware,Kicad,Pcbnew,(5.1.6)-1
; #@! TF.FileFunction,Plated,1,2,PTH
FMAT,2
METRIC
T1C0.400
T2C0.600
T3C0.700
T4C0.750
T5C0.800
T6C0.900
T7C0.990
T8C1.000
T9C1.300
%
G90
G05
T1
X125.02Y-84.02
X127.75Y-105.5
X129.0Y-90.25
X130.5Y-98.75
X132.0Y-94.0
X132.0Y-100.0
X140.5Y-97.95
X146.69Y-82.65
X152.0Y-88.05
X157.565Y-104.185
T2
X153.8Y-108.4
X157.4Y-108.4
T3
X140.12Y-96.4
X145.2Y-96.4
X145.2Y-98.8
X150.28Y-98.8
X145.2Y-94.0
X150.28Y-94.0
X140.12Y-91.6
X145.2Y-91.6
X150.2Y-86.8
X150.2Y-91.88
T4
X128.76Y-102.3
X130.03Y-103.57
X131.3Y-102.3
X147.36Y-103.0
X148.63Y-101.73
X149.9Y-103.0
T5
X134.0Y-104.0
X139.0Y-104.0
X139.0Y-101.2
X144.0Y-101.2
T6
X153.0Y-82.476
X154.778Y-84.0
X156.302Y-82.476
X157.826Y-84.0
X132.0Y-95.6
X136.0Y-95.6
T7
X122.71Y-98.34
X122.71Y-102.84
X122.71Y-88.35
X122.71Y-92.85
X156.29Y-88.36
X156.29Y-92.86
X156.29Y-98.35
X156.29Y-102.85
T8
X127.64Y-107.26
X127.64Y-109.8
X130.18Y-107.26
X130.18Y-109.8
X132.72Y-107.26
X132.72Y-109.8
X135.26Y-107.26
X135.26Y-109.8
X137.8Y-107.26
X137.8Y-109.8
X140.34Y-107.26
X140.34Y-109.8
X142.88Y-107.26
X142.88Y-109.8
X145.42Y-107.26
X145.42Y-109.8
X147.96Y-107.26
X147.96Y-109.8
X150.5Y-107.26
X150.5Y-109.8
X127.64Y-81.4
X127.64Y-83.94
X130.18Y-81.4
X130.18Y-83.94
X132.72Y-81.4
X132.72Y-83.94
X135.26Y-81.4
X135.26Y-83.94
X137.8Y-81.4
X137.8Y-83.94
X140.34Y-81.4
X140.34Y-83.94
X142.88Y-81.4
X142.88Y-83.94
X145.42Y-81.4
X145.42Y-83.94
X147.96Y-81.4
X147.96Y-83.94
X150.5Y-81.4
X150.5Y-83.94
X135.92Y-87.6
X138.46Y-87.6
X141.0Y-87.6
X143.54Y-87.6
T9
X125.2Y-97.09
X125.2Y-104.1
X125.2Y-87.1
X125.2Y-94.11
X153.8Y-87.1
X153.8Y-94.11
X153.8Y-97.09
X153.8Y-104.1
T0
M30
