G04 #@! TF.GenerationSoftware,KiCad,Pcbnew,(5.1.6)-1*
G04 #@! TF.CreationDate,2022-03-29T00:17:24+01:00*
G04 #@! TF.ProjectId,hswatch,68737761-7463-4682-9e6b-696361645f70,v1.1*
G04 #@! TF.SameCoordinates,Original*
G04 #@! TF.FileFunction,Copper,L1,Top*
G04 #@! TF.FilePolarity,Positive*
%FSLAX46Y46*%
G04 Gerber Fmt 4.6, Leading zero omitted, Abs format (unit mm)*
G04 Created by KiCad (PCBNEW (5.1.6)-1) date 2022-03-29 00:17:24*
%MOMM*%
%LPD*%
G01*
G04 APERTURE LIST*
G04 #@! TA.AperFunction,ComponentPad*
%ADD10C,1.400000*%
G04 #@! TD*
G04 #@! TA.AperFunction,ComponentPad*
%ADD11O,1.400000X1.400000*%
G04 #@! TD*
G04 #@! TA.AperFunction,ComponentPad*
%ADD12C,1.600000*%
G04 #@! TD*
G04 #@! TA.AperFunction,ComponentPad*
%ADD13R,1.100000X1.800000*%
G04 #@! TD*
G04 #@! TA.AperFunction,ComponentPad*
%ADD14C,1.800000*%
G04 #@! TD*
G04 #@! TA.AperFunction,ComponentPad*
%ADD15O,1.700000X1.700000*%
G04 #@! TD*
G04 #@! TA.AperFunction,ComponentPad*
%ADD16R,1.700000X1.700000*%
G04 #@! TD*
G04 #@! TA.AperFunction,ComponentPad*
%ADD17R,1.600000X1.600000*%
G04 #@! TD*
G04 #@! TA.AperFunction,ComponentPad*
%ADD18C,2.100000*%
G04 #@! TD*
G04 #@! TA.AperFunction,ComponentPad*
%ADD19C,1.750000*%
G04 #@! TD*
G04 #@! TA.AperFunction,ViaPad*
%ADD20C,0.800000*%
G04 #@! TD*
G04 #@! TA.AperFunction,Conductor*
%ADD21C,0.500000*%
G04 #@! TD*
G04 #@! TA.AperFunction,Conductor*
%ADD22C,0.300000*%
G04 #@! TD*
G04 #@! TA.AperFunction,Conductor*
%ADD23C,0.250000*%
G04 #@! TD*
G04 APERTURE END LIST*
D10*
X150200000Y-86800000D03*
D11*
X150200000Y-91880000D03*
X150280000Y-98800000D03*
D10*
X145200000Y-98800000D03*
D11*
X145200000Y-96400000D03*
D10*
X140120000Y-96400000D03*
D11*
X150280000Y-94000000D03*
D10*
X145200000Y-94000000D03*
D11*
X140120000Y-91600000D03*
D10*
X145200000Y-91600000D03*
D12*
X144000000Y-101200000D03*
X139000000Y-101200000D03*
X134000000Y-104000000D03*
X139000000Y-104000000D03*
D13*
X149900000Y-103400000D03*
G04 #@! TA.AperFunction,ComponentPad*
G36*
G01*
X147910000Y-102775000D02*
X147910000Y-104025000D01*
G75*
G02*
X147635000Y-104300000I-275000J0D01*
G01*
X147085000Y-104300000D01*
G75*
G02*
X146810000Y-104025000I0J275000D01*
G01*
X146810000Y-102775000D01*
G75*
G02*
X147085000Y-102500000I275000J0D01*
G01*
X147635000Y-102500000D01*
G75*
G02*
X147910000Y-102775000I0J-275000D01*
G01*
G37*
G04 #@! TD.AperFunction*
G04 #@! TA.AperFunction,ComponentPad*
G36*
G01*
X149180000Y-100705000D02*
X149180000Y-101955000D01*
G75*
G02*
X148905000Y-102230000I-275000J0D01*
G01*
X148355000Y-102230000D01*
G75*
G02*
X148080000Y-101955000I0J275000D01*
G01*
X148080000Y-100705000D01*
G75*
G02*
X148355000Y-100430000I275000J0D01*
G01*
X148905000Y-100430000D01*
G75*
G02*
X149180000Y-100705000I0J-275000D01*
G01*
G37*
G04 #@! TD.AperFunction*
X128760000Y-101900000D03*
G04 #@! TA.AperFunction,ComponentPad*
G36*
G01*
X130750000Y-102525000D02*
X130750000Y-101275000D01*
G75*
G02*
X131025000Y-101000000I275000J0D01*
G01*
X131575000Y-101000000D01*
G75*
G02*
X131850000Y-101275000I0J-275000D01*
G01*
X131850000Y-102525000D01*
G75*
G02*
X131575000Y-102800000I-275000J0D01*
G01*
X131025000Y-102800000D01*
G75*
G02*
X130750000Y-102525000I0J275000D01*
G01*
G37*
G04 #@! TD.AperFunction*
G04 #@! TA.AperFunction,ComponentPad*
G36*
G01*
X129480000Y-104595000D02*
X129480000Y-103345000D01*
G75*
G02*
X129755000Y-103070000I275000J0D01*
G01*
X130305000Y-103070000D01*
G75*
G02*
X130580000Y-103345000I0J-275000D01*
G01*
X130580000Y-104595000D01*
G75*
G02*
X130305000Y-104870000I-275000J0D01*
G01*
X129755000Y-104870000D01*
G75*
G02*
X129480000Y-104595000I0J275000D01*
G01*
G37*
G04 #@! TD.AperFunction*
G04 #@! TA.AperFunction,ComponentPad*
G36*
G01*
X152100000Y-82926000D02*
X152100000Y-82026000D01*
G75*
G02*
X152550000Y-81576000I450000J0D01*
G01*
X153450000Y-81576000D01*
G75*
G02*
X153900000Y-82026000I0J-450000D01*
G01*
X153900000Y-82926000D01*
G75*
G02*
X153450000Y-83376000I-450000J0D01*
G01*
X152550000Y-83376000D01*
G75*
G02*
X152100000Y-82926000I0J450000D01*
G01*
G37*
G04 #@! TD.AperFunction*
D14*
X154778000Y-84000000D03*
X156302000Y-82476000D03*
X157826000Y-84000000D03*
D15*
X143540000Y-87600000D03*
X141000000Y-87600000D03*
X138460000Y-87600000D03*
D16*
X135920000Y-87600000D03*
D15*
X150500000Y-83940000D03*
X150500000Y-81400000D03*
X147960000Y-83940000D03*
X147960000Y-81400000D03*
X145420000Y-83940000D03*
X145420000Y-81400000D03*
X142880000Y-83940000D03*
X142880000Y-81400000D03*
X140340000Y-83940000D03*
X140340000Y-81400000D03*
X137800000Y-83940000D03*
X137800000Y-81400000D03*
X135260000Y-83940000D03*
X135260000Y-81400000D03*
X132720000Y-83940000D03*
X132720000Y-81400000D03*
X130180000Y-83940000D03*
X130180000Y-81400000D03*
X127640000Y-83940000D03*
D16*
X127640000Y-81400000D03*
D15*
X150500000Y-109800000D03*
X150500000Y-107260000D03*
X147960000Y-109800000D03*
X147960000Y-107260000D03*
X145420000Y-109800000D03*
X145420000Y-107260000D03*
X142880000Y-109800000D03*
X142880000Y-107260000D03*
X140340000Y-109800000D03*
X140340000Y-107260000D03*
X137800000Y-109800000D03*
X137800000Y-107260000D03*
X135260000Y-109800000D03*
X135260000Y-107260000D03*
X132720000Y-109800000D03*
X132720000Y-107260000D03*
X130180000Y-109800000D03*
X130180000Y-107260000D03*
X127640000Y-109800000D03*
D16*
X127640000Y-107260000D03*
D17*
X132000000Y-95600000D03*
D12*
X136000000Y-95600000D03*
G04 #@! TA.AperFunction,ComponentPad*
G36*
G01*
X153000000Y-108950000D02*
X153000000Y-107850000D01*
G75*
G02*
X153250000Y-107600000I250000J0D01*
G01*
X154350000Y-107600000D01*
G75*
G02*
X154600000Y-107850000I0J-250000D01*
G01*
X154600000Y-108950000D01*
G75*
G02*
X154350000Y-109200000I-250000J0D01*
G01*
X153250000Y-109200000D01*
G75*
G02*
X153000000Y-108950000I0J250000D01*
G01*
G37*
G04 #@! TD.AperFunction*
X157400000Y-108400000D03*
D18*
X125200000Y-87100000D03*
D19*
X122710000Y-88350000D03*
X122710000Y-92850000D03*
D18*
X125200000Y-94110000D03*
X125200000Y-97090000D03*
D19*
X122710000Y-98340000D03*
X122710000Y-102840000D03*
D18*
X125200000Y-104100000D03*
X153800000Y-87100000D03*
D19*
X156290000Y-88360000D03*
X156290000Y-92860000D03*
D18*
X153800000Y-94110000D03*
X153800000Y-97090000D03*
D19*
X156290000Y-98350000D03*
X156290000Y-102850000D03*
D18*
X153800000Y-104100000D03*
D20*
X132000000Y-100000000D03*
X125020000Y-84020000D03*
X140500000Y-97950000D03*
X127750000Y-105500000D03*
X157565001Y-104184999D03*
X129000000Y-90250000D03*
X146690000Y-82650000D03*
X130500000Y-98750000D03*
X152000000Y-88050001D03*
X132000000Y-94000000D03*
D21*
X138460000Y-89140000D02*
X132000000Y-95600000D01*
X138460000Y-87600000D02*
X138460000Y-89140000D01*
X139000000Y-101200000D02*
X139000000Y-104000000D01*
X132000000Y-100000000D02*
X132000000Y-95600000D01*
D22*
X132300000Y-102300000D02*
X134000000Y-104000000D01*
X131300000Y-102300000D02*
X132300000Y-102300000D01*
X136000000Y-98600000D02*
X136000000Y-95600000D01*
X132300000Y-102300000D02*
X136000000Y-98600000D01*
X154550001Y-105550001D02*
X157400000Y-108400000D01*
X149910001Y-105550001D02*
X154550001Y-105550001D01*
X147360000Y-103000000D02*
X149910001Y-105550001D01*
X153000000Y-84000000D02*
X153000000Y-82476000D01*
X150200000Y-86800000D02*
X153000000Y-84000000D01*
D21*
X155920000Y-88360000D02*
X156290000Y-88360000D01*
X121334999Y-94225001D02*
X122710000Y-92850000D01*
X121334999Y-101464999D02*
X121334999Y-94225001D01*
X122710000Y-102840000D02*
X121334999Y-101464999D01*
X121334999Y-91474999D02*
X121334999Y-87705001D01*
X122710000Y-92850000D02*
X121334999Y-91474999D01*
X121334999Y-87705001D02*
X125020000Y-84020000D01*
X125020000Y-84020000D02*
X127640000Y-81400000D01*
X157665001Y-96974999D02*
X156290000Y-98350000D01*
X157665001Y-89735001D02*
X157665001Y-96974999D01*
X156290000Y-88360000D02*
X157665001Y-89735001D01*
X127579998Y-109800000D02*
X127640000Y-109800000D01*
X122710000Y-104930002D02*
X127579998Y-109800000D01*
X122710000Y-102840000D02*
X122710000Y-104930002D01*
X150280000Y-98800000D02*
X150280000Y-94000000D01*
X149900000Y-99180000D02*
X150280000Y-98800000D01*
X149900000Y-103000000D02*
X149900000Y-99180000D01*
X137270001Y-86249999D02*
X135920000Y-87600000D01*
X140570001Y-86249999D02*
X137270001Y-86249999D01*
X142880000Y-83940000D02*
X140570001Y-86249999D01*
D22*
X154628002Y-84000000D02*
X154778000Y-84000000D01*
D21*
X156290000Y-85512000D02*
X154778000Y-84000000D01*
X156290000Y-88360000D02*
X156290000Y-85512000D01*
D22*
X141590001Y-97609999D02*
X145200000Y-94000000D01*
X141590001Y-108549999D02*
X141590001Y-97609999D01*
X140340000Y-109800000D02*
X141590001Y-108549999D01*
X138489998Y-107260000D02*
X137800000Y-107260000D01*
X140500000Y-105249998D02*
X138489998Y-107260000D01*
X140500000Y-97950000D02*
X140500000Y-105249998D01*
X130880002Y-103570000D02*
X130030000Y-103570000D01*
X133970001Y-106659999D02*
X130880002Y-103570000D01*
X133970001Y-107820003D02*
X133970001Y-106659999D01*
X134699997Y-108549999D02*
X133970001Y-107820003D01*
X136549999Y-108549999D02*
X134699997Y-108549999D01*
X137800000Y-109800000D02*
X136549999Y-108549999D01*
X135200001Y-101319999D02*
X140120000Y-96400000D01*
X135200001Y-105429999D02*
X135200001Y-101319999D01*
X133970001Y-106659999D02*
X135200001Y-105429999D01*
X127750000Y-93390000D02*
X122710000Y-88350000D01*
X127750000Y-105500000D02*
X127750000Y-93390000D01*
X156302000Y-84604748D02*
X158430000Y-86732748D01*
X156302000Y-82476000D02*
X156302000Y-84604748D01*
X158430000Y-86732748D02*
X158430000Y-103320000D01*
X158430000Y-103320000D02*
X157565001Y-104184999D01*
X128929999Y-90179999D02*
X129000000Y-90250000D01*
X130180000Y-81400000D02*
X128929999Y-82650001D01*
X128929999Y-82650001D02*
X128929999Y-90179999D01*
X146670001Y-88350001D02*
X150200000Y-91880000D01*
X146670001Y-82669999D02*
X146670001Y-88350001D01*
X146690000Y-82650000D02*
X146670001Y-82669999D01*
X131430001Y-83379997D02*
X131430001Y-84569999D01*
X132159997Y-82650001D02*
X131430001Y-83379997D01*
X135260000Y-81400000D02*
X134009999Y-82650001D01*
X134009999Y-82650001D02*
X132159997Y-82650001D01*
X131430001Y-84569999D02*
X130500000Y-85500000D01*
X130500000Y-85500000D02*
X130500000Y-98750000D01*
X152000000Y-98560000D02*
X156290000Y-102850000D01*
X152000000Y-88050001D02*
X152000000Y-98560000D01*
X132000000Y-89099998D02*
X132000000Y-94000000D01*
X140340000Y-83940000D02*
X138719252Y-85560748D01*
X135539250Y-85560748D02*
X132000000Y-89099998D01*
X138719252Y-85560748D02*
X135539250Y-85560748D01*
D23*
X145200000Y-84160000D02*
X145420000Y-83940000D01*
D22*
X145420000Y-91380000D02*
X145200000Y-91600000D01*
X145420000Y-83940000D02*
X145420000Y-91380000D01*
M02*
