G04 #@! TF.GenerationSoftware,KiCad,Pcbnew,(5.1.6)-1*
G04 #@! TF.CreationDate,2022-03-29T00:17:24+01:00*
G04 #@! TF.ProjectId,hswatch,68737761-7463-4682-9e6b-696361645f70,v1.1*
G04 #@! TF.SameCoordinates,Original*
G04 #@! TF.FileFunction,Soldermask,Top*
G04 #@! TF.FilePolarity,Negative*
%FSLAX46Y46*%
G04 Gerber Fmt 4.6, Leading zero omitted, Abs format (unit mm)*
G04 Created by KiCad (PCBNEW (5.1.6)-1) date 2022-03-29 00:17:24*
%MOMM*%
%LPD*%
G01*
G04 APERTURE LIST*
%ADD10C,1.500000*%
%ADD11O,1.500000X1.500000*%
%ADD12C,1.700000*%
%ADD13R,1.200000X1.900000*%
%ADD14C,1.900000*%
%ADD15O,1.800000X1.800000*%
%ADD16R,1.800000X1.800000*%
%ADD17R,1.700000X1.700000*%
%ADD18C,2.200000*%
%ADD19C,1.850000*%
G04 APERTURE END LIST*
D10*
X150200000Y-86800000D03*
D11*
X150200000Y-91880000D03*
X150280000Y-98800000D03*
D10*
X145200000Y-98800000D03*
D11*
X145200000Y-96400000D03*
D10*
X140120000Y-96400000D03*
D11*
X150280000Y-94000000D03*
D10*
X145200000Y-94000000D03*
D11*
X140120000Y-91600000D03*
D10*
X145200000Y-91600000D03*
D12*
X144000000Y-101200000D03*
X139000000Y-101200000D03*
X134000000Y-104000000D03*
X139000000Y-104000000D03*
D13*
X149900000Y-103400000D03*
G36*
G01*
X147960000Y-102750000D02*
X147960000Y-104050000D01*
G75*
G02*
X147660000Y-104350000I-300000J0D01*
G01*
X147060000Y-104350000D01*
G75*
G02*
X146760000Y-104050000I0J300000D01*
G01*
X146760000Y-102750000D01*
G75*
G02*
X147060000Y-102450000I300000J0D01*
G01*
X147660000Y-102450000D01*
G75*
G02*
X147960000Y-102750000I0J-300000D01*
G01*
G37*
G36*
G01*
X149230000Y-100680000D02*
X149230000Y-101980000D01*
G75*
G02*
X148930000Y-102280000I-300000J0D01*
G01*
X148330000Y-102280000D01*
G75*
G02*
X148030000Y-101980000I0J300000D01*
G01*
X148030000Y-100680000D01*
G75*
G02*
X148330000Y-100380000I300000J0D01*
G01*
X148930000Y-100380000D01*
G75*
G02*
X149230000Y-100680000I0J-300000D01*
G01*
G37*
X128760000Y-101900000D03*
G36*
G01*
X130700000Y-102550000D02*
X130700000Y-101250000D01*
G75*
G02*
X131000000Y-100950000I300000J0D01*
G01*
X131600000Y-100950000D01*
G75*
G02*
X131900000Y-101250000I0J-300000D01*
G01*
X131900000Y-102550000D01*
G75*
G02*
X131600000Y-102850000I-300000J0D01*
G01*
X131000000Y-102850000D01*
G75*
G02*
X130700000Y-102550000I0J300000D01*
G01*
G37*
G36*
G01*
X129430000Y-104620000D02*
X129430000Y-103320000D01*
G75*
G02*
X129730000Y-103020000I300000J0D01*
G01*
X130330000Y-103020000D01*
G75*
G02*
X130630000Y-103320000I0J-300000D01*
G01*
X130630000Y-104620000D01*
G75*
G02*
X130330000Y-104920000I-300000J0D01*
G01*
X129730000Y-104920000D01*
G75*
G02*
X129430000Y-104620000I0J300000D01*
G01*
G37*
G36*
G01*
X152050000Y-82951000D02*
X152050000Y-82001000D01*
G75*
G02*
X152525000Y-81526000I475000J0D01*
G01*
X153475000Y-81526000D01*
G75*
G02*
X153950000Y-82001000I0J-475000D01*
G01*
X153950000Y-82951000D01*
G75*
G02*
X153475000Y-83426000I-475000J0D01*
G01*
X152525000Y-83426000D01*
G75*
G02*
X152050000Y-82951000I0J475000D01*
G01*
G37*
D14*
X154778000Y-84000000D03*
X156302000Y-82476000D03*
X157826000Y-84000000D03*
D15*
X143540000Y-87600000D03*
X141000000Y-87600000D03*
X138460000Y-87600000D03*
D16*
X135920000Y-87600000D03*
D15*
X150500000Y-83940000D03*
X150500000Y-81400000D03*
X147960000Y-83940000D03*
X147960000Y-81400000D03*
X145420000Y-83940000D03*
X145420000Y-81400000D03*
X142880000Y-83940000D03*
X142880000Y-81400000D03*
X140340000Y-83940000D03*
X140340000Y-81400000D03*
X137800000Y-83940000D03*
X137800000Y-81400000D03*
X135260000Y-83940000D03*
X135260000Y-81400000D03*
X132720000Y-83940000D03*
X132720000Y-81400000D03*
X130180000Y-83940000D03*
X130180000Y-81400000D03*
X127640000Y-83940000D03*
D16*
X127640000Y-81400000D03*
D15*
X150500000Y-109800000D03*
X150500000Y-107260000D03*
X147960000Y-109800000D03*
X147960000Y-107260000D03*
X145420000Y-109800000D03*
X145420000Y-107260000D03*
X142880000Y-109800000D03*
X142880000Y-107260000D03*
X140340000Y-109800000D03*
X140340000Y-107260000D03*
X137800000Y-109800000D03*
X137800000Y-107260000D03*
X135260000Y-109800000D03*
X135260000Y-107260000D03*
X132720000Y-109800000D03*
X132720000Y-107260000D03*
X130180000Y-109800000D03*
X130180000Y-107260000D03*
X127640000Y-109800000D03*
D16*
X127640000Y-107260000D03*
D17*
X132000000Y-95600000D03*
D12*
X136000000Y-95600000D03*
G36*
G01*
X152950000Y-108984375D02*
X152950000Y-107815625D01*
G75*
G02*
X153215625Y-107550000I265625J0D01*
G01*
X154384375Y-107550000D01*
G75*
G02*
X154650000Y-107815625I0J-265625D01*
G01*
X154650000Y-108984375D01*
G75*
G02*
X154384375Y-109250000I-265625J0D01*
G01*
X153215625Y-109250000D01*
G75*
G02*
X152950000Y-108984375I0J265625D01*
G01*
G37*
X157400000Y-108400000D03*
D18*
X125200000Y-87100000D03*
D19*
X122710000Y-88350000D03*
X122710000Y-92850000D03*
D18*
X125200000Y-94110000D03*
X125200000Y-97090000D03*
D19*
X122710000Y-98340000D03*
X122710000Y-102840000D03*
D18*
X125200000Y-104100000D03*
X153800000Y-87100000D03*
D19*
X156290000Y-88360000D03*
X156290000Y-92860000D03*
D18*
X153800000Y-94110000D03*
X153800000Y-97090000D03*
D19*
X156290000Y-98350000D03*
X156290000Y-102850000D03*
D18*
X153800000Y-104100000D03*
M02*
