G04 #@! TF.GenerationSoftware,KiCad,Pcbnew,(5.1.6)-1*
G04 #@! TF.CreationDate,2022-03-29T00:17:24+01:00*
G04 #@! TF.ProjectId,hswatch,68737761-7463-4682-9e6b-696361645f70,v1.1*
G04 #@! TF.SameCoordinates,Original*
G04 #@! TF.FileFunction,Legend,Top*
G04 #@! TF.FilePolarity,Positive*
%FSLAX46Y46*%
G04 Gerber Fmt 4.6, Leading zero omitted, Abs format (unit mm)*
G04 Created by KiCad (PCBNEW (5.1.6)-1) date 2022-03-29 00:17:24*
%MOMM*%
%LPD*%
G01*
G04 APERTURE LIST*
%ADD10C,0.150000*%
%ADD11C,0.010000*%
%ADD12C,0.120000*%
%ADD13C,1.500000*%
%ADD14O,1.500000X1.500000*%
%ADD15C,1.700000*%
%ADD16R,1.200000X1.900000*%
%ADD17C,1.900000*%
%ADD18O,1.800000X1.800000*%
%ADD19R,1.800000X1.800000*%
%ADD20R,1.700000X1.700000*%
%ADD21C,2.200000*%
%ADD22C,1.850000*%
G04 APERTURE END LIST*
D10*
X135254761Y-90361904D02*
X135254761Y-89561904D01*
X135597619Y-90361904D02*
X135597619Y-89942857D01*
X135559523Y-89866666D01*
X135483333Y-89828571D01*
X135369047Y-89828571D01*
X135292857Y-89866666D01*
X135254761Y-89904761D01*
X136321428Y-90361904D02*
X136321428Y-89942857D01*
X136283333Y-89866666D01*
X136207142Y-89828571D01*
X136054761Y-89828571D01*
X135978571Y-89866666D01*
X136321428Y-90323809D02*
X136245238Y-90361904D01*
X136054761Y-90361904D01*
X135978571Y-90323809D01*
X135940476Y-90247619D01*
X135940476Y-90171428D01*
X135978571Y-90095238D01*
X136054761Y-90057142D01*
X136245238Y-90057142D01*
X136321428Y-90019047D01*
X137045238Y-90323809D02*
X136969047Y-90361904D01*
X136816666Y-90361904D01*
X136740476Y-90323809D01*
X136702380Y-90285714D01*
X136664285Y-90209523D01*
X136664285Y-89980952D01*
X136702380Y-89904761D01*
X136740476Y-89866666D01*
X136816666Y-89828571D01*
X136969047Y-89828571D01*
X137045238Y-89866666D01*
X137388095Y-90361904D02*
X137388095Y-89561904D01*
X137464285Y-90057142D02*
X137692857Y-90361904D01*
X137692857Y-89828571D02*
X137388095Y-90133333D01*
X138340476Y-90323809D02*
X138264285Y-90361904D01*
X138111904Y-90361904D01*
X138035714Y-90323809D01*
X137997619Y-90247619D01*
X137997619Y-89942857D01*
X138035714Y-89866666D01*
X138111904Y-89828571D01*
X138264285Y-89828571D01*
X138340476Y-89866666D01*
X138378571Y-89942857D01*
X138378571Y-90019047D01*
X137997619Y-90095238D01*
X138721428Y-90361904D02*
X138721428Y-89828571D01*
X138721428Y-89980952D02*
X138759523Y-89904761D01*
X138797619Y-89866666D01*
X138873809Y-89828571D01*
X138950000Y-89828571D01*
X139178571Y-90323809D02*
X139254761Y-90361904D01*
X139407142Y-90361904D01*
X139483333Y-90323809D01*
X139521428Y-90247619D01*
X139521428Y-90209523D01*
X139483333Y-90133333D01*
X139407142Y-90095238D01*
X139292857Y-90095238D01*
X139216666Y-90057142D01*
X139178571Y-89980952D01*
X139178571Y-89942857D01*
X139216666Y-89866666D01*
X139292857Y-89828571D01*
X139407142Y-89828571D01*
X139483333Y-89866666D01*
X140207142Y-90323809D02*
X140130952Y-90361904D01*
X139978571Y-90361904D01*
X139902380Y-90323809D01*
X139864285Y-90285714D01*
X139826190Y-90209523D01*
X139826190Y-89980952D01*
X139864285Y-89904761D01*
X139902380Y-89866666D01*
X139978571Y-89828571D01*
X140130952Y-89828571D01*
X140207142Y-89866666D01*
X140550000Y-90361904D02*
X140550000Y-89561904D01*
X140892857Y-90361904D02*
X140892857Y-89942857D01*
X140854761Y-89866666D01*
X140778571Y-89828571D01*
X140664285Y-89828571D01*
X140588095Y-89866666D01*
X140550000Y-89904761D01*
X141388095Y-90361904D02*
X141311904Y-90323809D01*
X141273809Y-90285714D01*
X141235714Y-90209523D01*
X141235714Y-89980952D01*
X141273809Y-89904761D01*
X141311904Y-89866666D01*
X141388095Y-89828571D01*
X141502380Y-89828571D01*
X141578571Y-89866666D01*
X141616666Y-89904761D01*
X141654761Y-89980952D01*
X141654761Y-90209523D01*
X141616666Y-90285714D01*
X141578571Y-90323809D01*
X141502380Y-90361904D01*
X141388095Y-90361904D01*
X142111904Y-90361904D02*
X142035714Y-90323809D01*
X141997619Y-90285714D01*
X141959523Y-90209523D01*
X141959523Y-89980952D01*
X141997619Y-89904761D01*
X142035714Y-89866666D01*
X142111904Y-89828571D01*
X142226190Y-89828571D01*
X142302380Y-89866666D01*
X142340476Y-89904761D01*
X142378571Y-89980952D01*
X142378571Y-90209523D01*
X142340476Y-90285714D01*
X142302380Y-90323809D01*
X142226190Y-90361904D01*
X142111904Y-90361904D01*
X142835714Y-90361904D02*
X142759523Y-90323809D01*
X142721428Y-90247619D01*
X142721428Y-89561904D01*
X143140476Y-90285714D02*
X143178571Y-90323809D01*
X143140476Y-90361904D01*
X143102380Y-90323809D01*
X143140476Y-90285714D01*
X143140476Y-90361904D01*
X143521428Y-90361904D02*
X143521428Y-89828571D01*
X143521428Y-89561904D02*
X143483333Y-89600000D01*
X143521428Y-89638095D01*
X143559523Y-89600000D01*
X143521428Y-89561904D01*
X143521428Y-89638095D01*
X144016666Y-90361904D02*
X143940476Y-90323809D01*
X143902380Y-90285714D01*
X143864285Y-90209523D01*
X143864285Y-89980952D01*
X143902380Y-89904761D01*
X143940476Y-89866666D01*
X144016666Y-89828571D01*
X144130952Y-89828571D01*
X144207142Y-89866666D01*
X144245238Y-89904761D01*
X144283333Y-89980952D01*
X144283333Y-90209523D01*
X144245238Y-90285714D01*
X144207142Y-90323809D01*
X144130952Y-90361904D01*
X144016666Y-90361904D01*
X120638095Y-81186904D02*
X120638095Y-80386904D01*
X120638095Y-80767857D02*
X121095238Y-80767857D01*
X121095238Y-81186904D02*
X121095238Y-80386904D01*
X121438095Y-81148809D02*
X121552380Y-81186904D01*
X121742857Y-81186904D01*
X121819047Y-81148809D01*
X121857142Y-81110714D01*
X121895238Y-81034523D01*
X121895238Y-80958333D01*
X121857142Y-80882142D01*
X121819047Y-80844047D01*
X121742857Y-80805952D01*
X121590476Y-80767857D01*
X121514285Y-80729761D01*
X121476190Y-80691666D01*
X121438095Y-80615476D01*
X121438095Y-80539285D01*
X121476190Y-80463095D01*
X121514285Y-80425000D01*
X121590476Y-80386904D01*
X121780952Y-80386904D01*
X121895238Y-80425000D01*
X122161904Y-80386904D02*
X122352380Y-81186904D01*
X122504761Y-80615476D01*
X122657142Y-81186904D01*
X122847619Y-80386904D01*
X123495238Y-81186904D02*
X123495238Y-80767857D01*
X123457142Y-80691666D01*
X123380952Y-80653571D01*
X123228571Y-80653571D01*
X123152380Y-80691666D01*
X123495238Y-81148809D02*
X123419047Y-81186904D01*
X123228571Y-81186904D01*
X123152380Y-81148809D01*
X123114285Y-81072619D01*
X123114285Y-80996428D01*
X123152380Y-80920238D01*
X123228571Y-80882142D01*
X123419047Y-80882142D01*
X123495238Y-80844047D01*
X123761904Y-80653571D02*
X124066666Y-80653571D01*
X123876190Y-80386904D02*
X123876190Y-81072619D01*
X123914285Y-81148809D01*
X123990476Y-81186904D01*
X124066666Y-81186904D01*
X124676190Y-81148809D02*
X124600000Y-81186904D01*
X124447619Y-81186904D01*
X124371428Y-81148809D01*
X124333333Y-81110714D01*
X124295238Y-81034523D01*
X124295238Y-80805952D01*
X124333333Y-80729761D01*
X124371428Y-80691666D01*
X124447619Y-80653571D01*
X124600000Y-80653571D01*
X124676190Y-80691666D01*
X125019047Y-81186904D02*
X125019047Y-80386904D01*
X125361904Y-81186904D02*
X125361904Y-80767857D01*
X125323809Y-80691666D01*
X125247619Y-80653571D01*
X125133333Y-80653571D01*
X125057142Y-80691666D01*
X125019047Y-80729761D01*
X121857142Y-82003571D02*
X122047619Y-82536904D01*
X122238095Y-82003571D01*
X122961904Y-82536904D02*
X122504761Y-82536904D01*
X122733333Y-82536904D02*
X122733333Y-81736904D01*
X122657142Y-81851190D01*
X122580952Y-81927380D01*
X122504761Y-81965476D01*
X123304761Y-82460714D02*
X123342857Y-82498809D01*
X123304761Y-82536904D01*
X123266666Y-82498809D01*
X123304761Y-82460714D01*
X123304761Y-82536904D01*
X124104761Y-82536904D02*
X123647619Y-82536904D01*
X123876190Y-82536904D02*
X123876190Y-81736904D01*
X123800000Y-81851190D01*
X123723809Y-81927380D01*
X123647619Y-81965476D01*
D11*
G36*
X121361585Y-106123981D02*
G01*
X121919702Y-106687667D01*
X121920385Y-107242233D01*
X121921067Y-107796800D01*
X123521460Y-107796800D01*
X124075930Y-108351462D01*
X124630400Y-108906123D01*
X124630400Y-110497587D01*
X123288394Y-109155660D01*
X123111090Y-108978476D01*
X122940419Y-108808136D01*
X122777913Y-108646155D01*
X122625103Y-108494051D01*
X122483518Y-108353341D01*
X122354691Y-108225540D01*
X122240152Y-108112165D01*
X122141432Y-108014733D01*
X122060061Y-107934761D01*
X121997570Y-107873764D01*
X121955491Y-107833259D01*
X121935354Y-107814764D01*
X121933829Y-107813734D01*
X121931809Y-107830242D01*
X121929781Y-107878066D01*
X121927779Y-107954656D01*
X121925835Y-108057461D01*
X121923980Y-108183930D01*
X121922247Y-108331514D01*
X121920668Y-108497661D01*
X121919275Y-108679821D01*
X121918101Y-108875443D01*
X121917178Y-109081977D01*
X121916936Y-109151565D01*
X121912601Y-110489396D01*
X121358034Y-109934637D01*
X120803467Y-109379877D01*
X120803467Y-105560295D01*
X121361585Y-106123981D01*
G37*
X121361585Y-106123981D02*
X121919702Y-106687667D01*
X121920385Y-107242233D01*
X121921067Y-107796800D01*
X123521460Y-107796800D01*
X124075930Y-108351462D01*
X124630400Y-108906123D01*
X124630400Y-110497587D01*
X123288394Y-109155660D01*
X123111090Y-108978476D01*
X122940419Y-108808136D01*
X122777913Y-108646155D01*
X122625103Y-108494051D01*
X122483518Y-108353341D01*
X122354691Y-108225540D01*
X122240152Y-108112165D01*
X122141432Y-108014733D01*
X122060061Y-107934761D01*
X121997570Y-107873764D01*
X121955491Y-107833259D01*
X121935354Y-107814764D01*
X121933829Y-107813734D01*
X121931809Y-107830242D01*
X121929781Y-107878066D01*
X121927779Y-107954656D01*
X121925835Y-108057461D01*
X121923980Y-108183930D01*
X121922247Y-108331514D01*
X121920668Y-108497661D01*
X121919275Y-108679821D01*
X121918101Y-108875443D01*
X121917178Y-109081977D01*
X121916936Y-109151565D01*
X121912601Y-110489396D01*
X121358034Y-109934637D01*
X120803467Y-109379877D01*
X120803467Y-105560295D01*
X121361585Y-106123981D01*
G36*
X124075963Y-106127376D02*
G01*
X124630660Y-106693651D01*
X124626297Y-107736392D01*
X124621934Y-108779132D01*
X124067237Y-108224242D01*
X123512541Y-107669351D01*
X123521267Y-105561101D01*
X124075963Y-106127376D01*
G37*
X124075963Y-106127376D02*
X124630660Y-106693651D01*
X124626297Y-107736392D01*
X124621934Y-108779132D01*
X124067237Y-108224242D01*
X123512541Y-107669351D01*
X123521267Y-105561101D01*
X124075963Y-106127376D01*
D12*
X152853000Y-83537188D02*
X152853000Y-84783000D01*
X157893090Y-82951579D02*
G75*
G03*
X153660401Y-81460001I-2480090J-286421D01*
G01*
X158389836Y-82979784D02*
G75*
G03*
X153028000Y-81438000I-2976836J-258216D01*
G01*
X157804334Y-85032887D02*
G75*
G02*
X152853000Y-84782830I-2391334J1794887D01*
G01*
X157372086Y-84791056D02*
G75*
G02*
X153158316Y-84318000I-1959086J1553056D01*
G01*
X134590000Y-87600000D02*
X134590000Y-86270000D01*
X134590000Y-86270000D02*
X135920000Y-86270000D01*
X137190000Y-86270000D02*
X144870000Y-86270000D01*
X144870000Y-88930000D02*
X144870000Y-86270000D01*
X137190000Y-88930000D02*
X144870000Y-88930000D01*
X137190000Y-88930000D02*
X137190000Y-86270000D01*
D10*
X157261904Y-87052380D02*
X157261904Y-86052380D01*
X157500000Y-86052380D01*
X157642857Y-86100000D01*
X157738095Y-86195238D01*
X157785714Y-86290476D01*
X157833333Y-86480952D01*
X157833333Y-86623809D01*
X157785714Y-86814285D01*
X157738095Y-86909523D01*
X157642857Y-87004761D01*
X157500000Y-87052380D01*
X157261904Y-87052380D01*
X158785714Y-87052380D02*
X158214285Y-87052380D01*
X158500000Y-87052380D02*
X158500000Y-86052380D01*
X158404761Y-86195238D01*
X158309523Y-86290476D01*
X158214285Y-86338095D01*
X132602380Y-87933333D02*
X133316666Y-87933333D01*
X133459523Y-87980952D01*
X133554761Y-88076190D01*
X133602380Y-88219047D01*
X133602380Y-88314285D01*
X132602380Y-87552380D02*
X132602380Y-86933333D01*
X132983333Y-87266666D01*
X132983333Y-87123809D01*
X133030952Y-87028571D01*
X133078571Y-86980952D01*
X133173809Y-86933333D01*
X133411904Y-86933333D01*
X133507142Y-86980952D01*
X133554761Y-87028571D01*
X133602380Y-87123809D01*
X133602380Y-87409523D01*
X133554761Y-87504761D01*
X133507142Y-87552380D01*
X154790476Y-106852380D02*
X154790476Y-105852380D01*
X155123809Y-106566666D01*
X155457142Y-105852380D01*
X155457142Y-106852380D01*
X156457142Y-106852380D02*
X155885714Y-106852380D01*
X156171428Y-106852380D02*
X156171428Y-105852380D01*
X156076190Y-105995238D01*
X155980952Y-106090476D01*
X155885714Y-106138095D01*
%LPC*%
D13*
X150200000Y-86800000D03*
D14*
X150200000Y-91880000D03*
X150280000Y-98800000D03*
D13*
X145200000Y-98800000D03*
D14*
X145200000Y-96400000D03*
D13*
X140120000Y-96400000D03*
D14*
X150280000Y-94000000D03*
D13*
X145200000Y-94000000D03*
D14*
X140120000Y-91600000D03*
D13*
X145200000Y-91600000D03*
D15*
X144000000Y-101200000D03*
X139000000Y-101200000D03*
X134000000Y-104000000D03*
X139000000Y-104000000D03*
D16*
X149900000Y-103400000D03*
G36*
G01*
X147960000Y-102750000D02*
X147960000Y-104050000D01*
G75*
G02*
X147660000Y-104350000I-300000J0D01*
G01*
X147060000Y-104350000D01*
G75*
G02*
X146760000Y-104050000I0J300000D01*
G01*
X146760000Y-102750000D01*
G75*
G02*
X147060000Y-102450000I300000J0D01*
G01*
X147660000Y-102450000D01*
G75*
G02*
X147960000Y-102750000I0J-300000D01*
G01*
G37*
G36*
G01*
X149230000Y-100680000D02*
X149230000Y-101980000D01*
G75*
G02*
X148930000Y-102280000I-300000J0D01*
G01*
X148330000Y-102280000D01*
G75*
G02*
X148030000Y-101980000I0J300000D01*
G01*
X148030000Y-100680000D01*
G75*
G02*
X148330000Y-100380000I300000J0D01*
G01*
X148930000Y-100380000D01*
G75*
G02*
X149230000Y-100680000I0J-300000D01*
G01*
G37*
X128760000Y-101900000D03*
G36*
G01*
X130700000Y-102550000D02*
X130700000Y-101250000D01*
G75*
G02*
X131000000Y-100950000I300000J0D01*
G01*
X131600000Y-100950000D01*
G75*
G02*
X131900000Y-101250000I0J-300000D01*
G01*
X131900000Y-102550000D01*
G75*
G02*
X131600000Y-102850000I-300000J0D01*
G01*
X131000000Y-102850000D01*
G75*
G02*
X130700000Y-102550000I0J300000D01*
G01*
G37*
G36*
G01*
X129430000Y-104620000D02*
X129430000Y-103320000D01*
G75*
G02*
X129730000Y-103020000I300000J0D01*
G01*
X130330000Y-103020000D01*
G75*
G02*
X130630000Y-103320000I0J-300000D01*
G01*
X130630000Y-104620000D01*
G75*
G02*
X130330000Y-104920000I-300000J0D01*
G01*
X129730000Y-104920000D01*
G75*
G02*
X129430000Y-104620000I0J300000D01*
G01*
G37*
G36*
G01*
X152050000Y-82951000D02*
X152050000Y-82001000D01*
G75*
G02*
X152525000Y-81526000I475000J0D01*
G01*
X153475000Y-81526000D01*
G75*
G02*
X153950000Y-82001000I0J-475000D01*
G01*
X153950000Y-82951000D01*
G75*
G02*
X153475000Y-83426000I-475000J0D01*
G01*
X152525000Y-83426000D01*
G75*
G02*
X152050000Y-82951000I0J475000D01*
G01*
G37*
D17*
X154778000Y-84000000D03*
X156302000Y-82476000D03*
X157826000Y-84000000D03*
D18*
X143540000Y-87600000D03*
X141000000Y-87600000D03*
X138460000Y-87600000D03*
D19*
X135920000Y-87600000D03*
D18*
X150500000Y-83940000D03*
X150500000Y-81400000D03*
X147960000Y-83940000D03*
X147960000Y-81400000D03*
X145420000Y-83940000D03*
X145420000Y-81400000D03*
X142880000Y-83940000D03*
X142880000Y-81400000D03*
X140340000Y-83940000D03*
X140340000Y-81400000D03*
X137800000Y-83940000D03*
X137800000Y-81400000D03*
X135260000Y-83940000D03*
X135260000Y-81400000D03*
X132720000Y-83940000D03*
X132720000Y-81400000D03*
X130180000Y-83940000D03*
X130180000Y-81400000D03*
X127640000Y-83940000D03*
D19*
X127640000Y-81400000D03*
D18*
X150500000Y-109800000D03*
X150500000Y-107260000D03*
X147960000Y-109800000D03*
X147960000Y-107260000D03*
X145420000Y-109800000D03*
X145420000Y-107260000D03*
X142880000Y-109800000D03*
X142880000Y-107260000D03*
X140340000Y-109800000D03*
X140340000Y-107260000D03*
X137800000Y-109800000D03*
X137800000Y-107260000D03*
X135260000Y-109800000D03*
X135260000Y-107260000D03*
X132720000Y-109800000D03*
X132720000Y-107260000D03*
X130180000Y-109800000D03*
X130180000Y-107260000D03*
X127640000Y-109800000D03*
D19*
X127640000Y-107260000D03*
D20*
X132000000Y-95600000D03*
D15*
X136000000Y-95600000D03*
G36*
G01*
X152950000Y-108984375D02*
X152950000Y-107815625D01*
G75*
G02*
X153215625Y-107550000I265625J0D01*
G01*
X154384375Y-107550000D01*
G75*
G02*
X154650000Y-107815625I0J-265625D01*
G01*
X154650000Y-108984375D01*
G75*
G02*
X154384375Y-109250000I-265625J0D01*
G01*
X153215625Y-109250000D01*
G75*
G02*
X152950000Y-108984375I0J265625D01*
G01*
G37*
X157400000Y-108400000D03*
D21*
X125200000Y-87100000D03*
D22*
X122710000Y-88350000D03*
X122710000Y-92850000D03*
D21*
X125200000Y-94110000D03*
X125200000Y-97090000D03*
D22*
X122710000Y-98340000D03*
X122710000Y-102840000D03*
D21*
X125200000Y-104100000D03*
X153800000Y-87100000D03*
D22*
X156290000Y-88360000D03*
X156290000Y-92860000D03*
D21*
X153800000Y-94110000D03*
X153800000Y-97090000D03*
D22*
X156290000Y-98350000D03*
X156290000Y-102850000D03*
D21*
X153800000Y-104100000D03*
M02*
